<svg width="16" height="16" viewBox="0 0 16 16" fill="none" xmlns="http://www.w3.org/2000/svg">
<path d="M0 8C0 3.58172 3.58172 0 8 0C12.4183 0 16 3.58172 16 8C16 12.4183 12.4183 16 8 16C3.58172 16 0 12.4183 0 8Z" fill="#383838"/>
<path d="M11.7884 4.21165C12.0504 4.47368 12.0691 4.8869 11.8445 5.17054L11.7884 5.23356L9.02141 7.99949L11.7884 10.7664C12.0705 11.0486 12.0705 11.5062 11.7884 11.7884C11.5263 12.0504 11.1131 12.0691 10.8295 11.8445L10.7664 11.7884L7.99949 9.02141L5.23356 11.7884C4.95137 12.0705 4.49384 12.0705 4.21165 11.7884C3.94961 11.5263 3.93089 11.1131 4.15549 10.8295L4.21165 10.7664L6.97757 7.99949L4.21165 5.23356C3.92945 4.95137 3.92945 4.49384 4.21165 4.21165C4.47368 3.94961 4.8869 3.93089 5.17054 4.15549L5.23356 4.21165L7.99949 6.97757L10.7664 4.21165C11.0486 3.92945 11.5062 3.92945 11.7884 4.21165Z" fill="#9F9F9F"/>
</svg>
